<svg xmlns="http://www.w3.org/2000/svg" viewBox="0 0 24 30" x="0px" y="0px"><title>weather, cloud, sun, sunny, day, forecast</title><path d="M12,2V3a1,1,0,0,0,2,0V2a1,1,0,0,0-2,0Z"/><path d="M6.636,6.05A1,1,0,0,0,8.05,4.636l-.707-.707A1,1,0,0,0,5.929,5.343Z"/><path d="M22,10H21a1,1,0,0,0,0,2h1a1,1,0,0,0,0-2Z"/><path d="M18.657,3.929l-.707.707A1,1,0,1,0,19.364,6.05l.707-.707a1,1,0,0,0-1.414-1.414Z"/><path d="M18.853,12.294A5.876,5.876,0,0,0,19,11,5.992,5.992,0,0,0,7.81,8.01c-.035,0-.069,0-.1,0A7.212,7.212,0,0,0,1,15.271,7.737,7.737,0,0,0,8.729,23H18a5.006,5.006,0,0,0,5-5,6,6,0,0,0-4.147-5.706ZM13,7a4,4,0,0,1,4,4,3.824,3.824,0,0,1-.133,1c-.057,0-.114.01-.171.013a5.457,5.457,0,0,0-2.153.51l-.008-.018a6.877,6.877,0,0,0-.414-.881c-.042-.077-.088-.151-.133-.226a6.762,6.762,0,0,0-.427-.63c-.052-.068-.1-.138-.155-.2a6.893,6.893,0,0,0-.633-.679c-.093-.087-.2-.161-.293-.243-.131-.109-.263-.217-.4-.316-.159-.115-.324-.22-.492-.321-.061-.036-.122-.07-.184-.1a6.942,6.942,0,0,0-1.359-.593A3.993,3.993,0,0,1,13,7Zm5,14H8.729A5.735,5.735,0,0,1,3,15.271,5.2,5.2,0,0,1,7.788,10a4.93,4.93,0,0,1,.517.028l.028.005a5.092,5.092,0,0,1,1.611.381l.12.053a5.063,5.063,0,0,1,.578.307c.082.052.16.108.239.164a4.6,4.6,0,0,1,.408.314c.106.093.205.2.3.3s.191.194.278.3a5.05,5.05,0,0,1,.3.424c.062.1.13.185.185.284a5.1,5.1,0,0,1,.252.545c.035.087.08.168.111.257a5.069,5.069,0,0,1,.216.861l0,.015a1,1,0,0,0,.621.778,1.017,1.017,0,0,0,.325.062c.015,0,.028.008.042.008a.586.586,0,0,0,.058-.01.918.918,0,0,0,.2-.034.709.709,0,0,0,.093-.026,1,1,0,0,0,.266-.144,4.007,4.007,0,0,1,1.859-.827c.038-.006.078-.005.116-.009A3.777,3.777,0,0,1,17.038,14c.08,0,.156.018.235.024.053.008.105.017.159.023.017,0,.033,0,.05,0A3.991,3.991,0,0,1,21,18,3,3,0,0,1,18,21Z"/><text x="0" y="39" fill="#000000" font-size="5px" font-weight="bold" font-family="'Helvetica Neue', Helvetica, Arial-Unicode, Arial, Sans-serif">Created by Royyan Wijaya</text><text x="0" y="44" fill="#000000" font-size="5px" font-weight="bold" font-family="'Helvetica Neue', Helvetica, Arial-Unicode, Arial, Sans-serif">from the Noun Project</text></svg>