<svg xmlns="http://www.w3.org/2000/svg" viewBox="0 0 24 30" x="0px" y="0px"><title>weather, cloud, forecast, cloudy</title><path d="M18.5,10.091V9.5a6.5,6.5,0,0,0-13,0v.591A5.5,5.5,0,0,0,6.5,21h11a5.5,5.5,0,0,0,1-10.909ZM17.5,19H6.5a3.5,3.5,0,0,1,0-7,1,1,0,0,0,1-1V9.5a4.5,4.5,0,0,1,9,0V11a1,1,0,0,0,1,1,3.5,3.5,0,0,1,0,7Z"/><text x="0" y="39" fill="#000000" font-size="5px" font-weight="bold" font-family="'Helvetica Neue', Helvetica, Arial-Unicode, Arial, Sans-serif">Created by Royyan Wijaya</text><text x="0" y="44" fill="#000000" font-size="5px" font-weight="bold" font-family="'Helvetica Neue', Helvetica, Arial-Unicode, Arial, Sans-serif">from the Noun Project</text></svg>