<svg xmlns="http://www.w3.org/2000/svg" viewBox="0 0 24 30" x="0px" y="0px"><title>weather, cloud, moon, forecast, night</title><path d="M20.565,13.182A5.892,5.892,0,0,0,21,11a6.028,6.028,0,0,0-.184-1.453A1,1,0,0,0,19.39,8.9,2.334,2.334,0,0,1,16,6.833a2.3,2.3,0,0,1,.085-.578A1.017,1.017,0,0,0,15.9,5.42a1.051,1.051,0,0,0-.766-.415L15,5A5.96,5.96,0,0,0,9.71,8.221a6.882,6.882,0,0,0-2.005-.215A7.212,7.212,0,0,0,1,15.271,7.737,7.737,0,0,0,8.729,23H18a5.006,5.006,0,0,0,5-5,5.96,5.96,0,0,0-1.758-4.243A6.021,6.021,0,0,0,20.565,13.182ZM14.01,7.123a4.339,4.339,0,0,0,4.323,4.044A4.221,4.221,0,0,0,19,11.113a3.782,3.782,0,0,1-.216,1.155,5.888,5.888,0,0,0-.856-.191l-.049-.007A5.735,5.735,0,0,0,17.036,12h-.015a5.559,5.559,0,0,0-2.287.446c-.063.027-.128.047-.191.077a6.993,6.993,0,0,0-2.98-3.53A3.98,3.98,0,0,1,14.01,7.123ZM18,21H8.729A5.735,5.735,0,0,1,3,15.271,5.194,5.194,0,0,1,7.787,10a4.941,4.941,0,0,1,2.079.374c.007,0,.012.01.019.013a5.029,5.029,0,0,1,1.594,1.048l.027.026a5.048,5.048,0,0,1,.944,1.3c.065.13.129.261.183.4.039.1.074.194.107.293a5.118,5.118,0,0,1,.2.778,1,1,0,0,0,.621.779,1.012,1.012,0,0,0,.325.062c.014,0,.028.008.042.008a.567.567,0,0,0,.057-.01.937.937,0,0,0,.2-.034c.031-.008.062-.014.092-.025a1,1,0,0,0,.266-.145A3.8,3.8,0,0,1,16.974,14c.031,0,.063,0,.095,0a3.873,3.873,0,0,1,.541.055,4.113,4.113,0,0,1,1.2.4l.013,0A3.987,3.987,0,0,1,21,18,3,3,0,0,1,18,21Z"/><text x="0" y="39" fill="#000000" font-size="5px" font-weight="bold" font-family="'Helvetica Neue', Helvetica, Arial-Unicode, Arial, Sans-serif">Created by Royyan Wijaya</text><text x="0" y="44" fill="#000000" font-size="5px" font-weight="bold" font-family="'Helvetica Neue', Helvetica, Arial-Unicode, Arial, Sans-serif">from the Noun Project</text></svg>